Normalized EMG Linear Envelopes
nRows=246
nColumns=4

endheader
time	 med_gas_r	  soleus_r	 tib_ant_r	
2.92742	  0.067214	  0.048721	  0.016441	
2.96069	  0.068928	  0.049088	  0.016519	
2.99395	  0.070343	  0.049401	  0.016663	
3.02722	  0.071329	  0.049482	  0.016866	
3.06048	  0.071769	  0.049150	  0.017070	
3.09375	  0.071631	  0.048289	  0.017168	
3.12702	  0.070958	  0.047037	  0.017092	
3.16028	  0.069803	  0.045688	  0.016865	
3.19355	  0.068293	  0.044598	  0.016581	
3.22681	  0.066742	  0.044027	  0.016290	
3.26008	  0.065495	  0.044045	  0.016023	
3.29335	  0.064807	  0.044556	  0.015841	
3.32661	  0.064841	  0.045503	  0.015778	
3.35988	  0.065662	  0.046928	  0.015807	
3.39315	  0.067183	  0.048858	  0.015902	
3.42641	  0.069394	  0.051158	  0.016034	
3.45968	  0.072053	  0.053376	  0.016121	
3.49294	  0.074447	  0.054780	  0.016121	
3.52621	  0.076056	  0.054979	  0.016058	
3.55948	  0.076808	  0.054084	  0.015945	
3.59274	  0.076810	  0.052502	  0.015790	
3.62601	  0.076185	  0.050672	  0.015589	
3.65927	  0.074973	  0.048941	  0.015384	
3.69254	  0.073218	  0.047495	  0.015229	
3.72581	  0.071449	  0.046373	  0.015148	
3.75907	  0.070275	  0.045605	  0.015147	
3.79234	  0.069896	  0.045142	  0.015162	
3.8256	  0.070167	  0.044969	  0.015140	
3.85887	  0.070772	  0.045043	  0.015103	
3.89214	  0.071318	  0.045263	  0.015080	
3.9254	  0.071269	  0.045493	  0.015081	
3.95867	  0.070564	  0.045756	  0.015123	
3.99194	  0.069477	  0.045996	  0.015203	
4.0252	  0.068194	  0.046024	  0.015280	
4.05847	  0.066932	  0.045828	  0.015354	
4.09173	  0.065843	  0.045601	  0.015420	
4.125	  0.064936	  0.045462	  0.015479	
4.15827	  0.064245	  0.045440	  0.015595	
4.19153	  0.063859	  0.045557	  0.015803	
4.2248	  0.063909	  0.045748	  0.016052	
4.25806	  0.064456	  0.045976	  0.016246	
4.29133	  0.065330	  0.046210	  0.016307	
4.3246	  0.066332	  0.046304	  0.016268	
4.35786	  0.067383	  0.046192	  0.016219	
4.39113	  0.068384	  0.045997	  0.016178	
4.4244	  0.069288	  0.045803	  0.016134	
4.45766	  0.070135	  0.045736	  0.016131	
4.49093	  0.071037	  0.045817	  0.016214	
4.52419	  0.072153	  0.045958	  0.016400	
4.55746	  0.073559	  0.046066	  0.016645	
4.59073	  0.075091	  0.046115	  0.016803	
4.62399	  0.076247	  0.046131	  0.016696	
4.65726	  0.076462	  0.046037	  0.016072	
4.69052	  0.075343	  0.045522	  0.014664	
4.72379	  0.072719	  0.044223	  0.012299	
4.75706	  0.068889	  0.042138	  0.008983	
4.79032	  0.064499	  0.039461	  0.004903	
4.82359	  0.060137	  0.036443	  0.000427	
4.85685	  0.056244	  0.033617	 -0.003860	
4.89012	  0.053360	  0.031844	 -0.006916	
4.92339	  0.052546	  0.032166	 -0.007097	
4.95665	  0.055400	  0.035900	 -0.002123	
4.98992	  0.063945	  0.044713	  0.010889	
5.02319	  0.080397	  0.060420	  0.035271	
5.05645	  0.107119	  0.084827	  0.074509	
5.08972	  0.146142	  0.119240	  0.131587	
5.12298	  0.198203	  0.163851	  0.207719	
5.15625	  0.261531	  0.217388	  0.300618	
5.18952	  0.330759	  0.275736	  0.402614	
5.22278	  0.398473	  0.332450	  0.501220	
5.25605	  0.459058	  0.383473	  0.585540	
5.28931	  0.507131	  0.425530	  0.649457	
5.32258	  0.538338	  0.456586	  0.692688	
5.35585	  0.554399	  0.477962	  0.716044	
5.38911	  0.558715	  0.491588	  0.722552	
5.42238	  0.553590	  0.498674	  0.716443	
5.45565	  0.541181	  0.500210	  0.700892	
5.48891	  0.524960	  0.498649	  0.676843	
5.52218	  0.509437	  0.496856	  0.646156	
5.55544	  0.497457	  0.495490	  0.612589	
5.58871	  0.489316	  0.493234	  0.579323	
5.62198	  0.485731	  0.490076	  0.549294	
5.65524	  0.486722	  0.487622	  0.525665	
5.68851	  0.490385	  0.485073	  0.510464	
5.72177	  0.496593	  0.482944	  0.504594	
5.75504	  0.508136	  0.484406	  0.505544	
5.78831	  0.525201	  0.491972	  0.510827	
5.82157	  0.543343	  0.504709	  0.521065	
5.85484	  0.559041	  0.519922	  0.536610	
5.8881	  0.572482	  0.535534	  0.557985	
5.92137	  0.584982	  0.550725	  0.585226	
5.95464	  0.597195	  0.564019	  0.616895	
5.9879	  0.609428	  0.575457	  0.648456	
6.02117	  0.620692	  0.584536	  0.675381	
6.05444	  0.628636	  0.589669	  0.694239	
6.0877	  0.629860	  0.587236	  0.704068	
6.12097	  0.620984	  0.575593	  0.706602	
6.15423	  0.604826	  0.558811	  0.705241	
6.1875	  0.584936	  0.539481	  0.701588	
6.22077	  0.563989	  0.519803	  0.694550	
6.25403	  0.544939	  0.502177	  0.681825	
6.2873	  0.529099	  0.486754	  0.663866	
6.32056	  0.516673	  0.472764	  0.644825	
6.35383	  0.505641	  0.458537	  0.628649	
6.3871	  0.493809	  0.442766	  0.615329	
6.42036	  0.482048	  0.427833	  0.603671	
6.45363	  0.471319	  0.415893	  0.594295	
6.4869	  0.463765	  0.408778	  0.588608	
6.52016	  0.460627	  0.406787	  0.586061	
6.55343	  0.463098	  0.411007	  0.586106	
6.58669	  0.472301	  0.422659	  0.590254	
6.61996	  0.487959	  0.441264	  0.598347	
6.65323	  0.508557	  0.464162	  0.606993	
6.68649	  0.533015	  0.489334	  0.616022	
6.71976	  0.559457	  0.515295	  0.629930	
6.75302	  0.583626	  0.537174	  0.650248	
6.78629	  0.602360	  0.551570	  0.675535	
6.81956	  0.615355	  0.560986	  0.703041	
6.85282	  0.622353	  0.568271	  0.727785	
6.88609	  0.624679	  0.574949	  0.744451	
6.91935	  0.626394	  0.582949	  0.751266	
6.95262	  0.632109	  0.595338	  0.749603	
6.98589	  0.642136	  0.611919	  0.743001	
7.01915	  0.653719	  0.630248	  0.735640	
7.05242	  0.663055	  0.646842	  0.728858	
7.08569	  0.667678	  0.659553	  0.723392	
7.11895	  0.666921	  0.668248	  0.720042	
7.15222	  0.659844	  0.672985	  0.719578	
7.18548	  0.645809	  0.671355	  0.721087	
7.21875	  0.626771	  0.662422	  0.723183	
7.25202	  0.606530	  0.647493	  0.724864	
7.28528	  0.587702	  0.628326	  0.724966	
7.31855	  0.572598	  0.608043	  0.724494	
7.35181	  0.564243	  0.591306	  0.723984	
7.38508	  0.564954	  0.584288	  0.721273	
7.41835	  0.574397	  0.588719	  0.715985	
7.45161	  0.590338	  0.601129	  0.707601	
7.48488	  0.608366	  0.615246	  0.697571	
7.51815	  0.624958	  0.627293	  0.686425	
7.55141	  0.636276	  0.634488	  0.674322	
7.58468	  0.639226	  0.636133	  0.662427	
7.61794	  0.633759	  0.632458	  0.651792	
7.65121	  0.620788	  0.623245	  0.644187	
7.68448	  0.602072	  0.608222	  0.642367	
7.71774	  0.582421	  0.591313	  0.646381	
7.75101	  0.565635	  0.575455	  0.657538	
7.78427	  0.554024	  0.561458	  0.674797	
7.81754	  0.546819	  0.547840	  0.692589	
7.85081	  0.541607	  0.533654	  0.704211	
7.88407	  0.536534	  0.521241	  0.705452	
7.91734	  0.531325	  0.512806	  0.694934	
7.9506	  0.525550	  0.507546	  0.675467	
7.98387	  0.518306	  0.501501	  0.650612	
8.01714	  0.509769	  0.493346	  0.625066	
8.0504	  0.499877	  0.483062	  0.601589	
8.08367	  0.490151	  0.473674	  0.580708	
8.11694	  0.483120	  0.468985	  0.562358	
8.1502	  0.482699	  0.472925	  0.549202	
8.18347	  0.492258	  0.488404	  0.545863	
8.21673	  0.511127	  0.515149	  0.554133	
8.25	  0.536102	  0.549850	  0.570712	
8.28327	  0.563282	  0.589660	  0.589724	
8.31653	  0.589273	  0.632336	  0.608349	
8.3498	  0.611204	  0.672600	  0.626336	
8.38306	  0.627632	  0.703382	  0.642038	
8.41633	  0.638367	  0.720663	  0.654609	
8.4496	  0.644294	  0.725639	  0.662971	
8.48286	  0.645304	  0.719453	  0.666971	
8.51613	  0.642896	  0.704374	  0.665893	
8.5494	  0.637843	  0.682491	  0.659444	
8.58266	  0.630027	  0.655485	  0.651982	
8.61593	  0.620427	  0.624847	  0.648460	
8.64919	  0.610932	  0.592594	  0.649714	
8.68246	  0.602813	  0.561340	  0.655521	
8.71573	  0.599019	  0.535739	  0.665834	
8.74899	  0.600822	  0.519774	  0.678524	
8.78226	  0.606931	  0.515306	  0.693364	
8.81552	  0.614592	  0.521655	  0.711712	
8.84879	  0.622254	  0.536763	  0.731733	
8.88206	  0.628700	  0.556930	  0.749006	
8.91532	  0.633147	  0.577062	  0.759434	
8.94859	  0.634629	  0.591407	  0.765452	
8.98185	  0.632188	  0.596460	  0.769813	
9.01512	  0.626477	  0.592744	  0.772149	
9.04839	  0.618913	  0.584698	  0.771042	
9.08165	  0.609416	  0.575961	  0.762958	
9.11492	  0.597675	  0.569195	  0.746223	
9.14819	  0.586174	  0.567127	  0.721227	
9.18145	  0.579790	  0.574183	  0.692289	
9.21472	  0.582397	  0.592632	  0.665136	
9.24798	  0.593042	  0.618208	  0.645163	
9.28125	  0.607907	  0.643393	  0.636973	
9.31452	  0.625829	  0.667223	  0.639828	
9.34778	  0.646494	  0.688343	  0.649573	
9.38105	  0.665764	  0.701362	  0.662795	
9.41431	  0.680300	  0.703686	  0.676798	
9.44758	  0.688292	  0.697767	  0.689199	
9.48085	  0.687317	  0.686237	  0.697949	
9.51411	  0.676164	  0.668997	  0.701264	
9.54738	  0.657237	  0.646822	  0.699214	
9.58065	  0.635943	  0.624461	  0.695062	
9.61391	  0.616158	  0.606490	  0.691495	
9.64718	  0.599770	  0.594382	  0.685889	
9.68044	  0.587007	  0.587711	  0.674448	
9.71371	  0.576637	  0.584955	  0.657381	
9.74698	  0.564577	  0.581506	  0.637253	
9.78024	  0.546039	  0.571943	  0.617953	
9.81351	  0.519268	  0.554519	  0.601720	
9.84677	  0.488223	  0.532527	  0.590584	
9.88004	  0.458513	  0.509294	  0.586177	
9.91331	  0.433541	  0.486800	  0.587547	
9.94657	  0.414555	  0.466721	  0.592276	
9.97984	  0.401725	  0.449305	  0.597447	
10.0131	  0.394889	  0.434294	  0.601926	
10.0464	  0.393520	  0.423451	  0.603759	
10.0796	  0.397164	  0.417800	  0.600332	
10.1129	  0.403683	  0.414783	  0.589777	
10.1462	  0.409997	  0.411696	  0.574256	
10.1794	  0.414025	  0.406352	  0.557820	
10.2127	  0.417532	  0.399950	  0.542004	
10.246	  0.423484	  0.396041	  0.526725	
10.2792	  0.432630	  0.396619	  0.511890	
10.3125	  0.442477	  0.400295	  0.495815	
10.3458	  0.450473	  0.404947	  0.477744	
10.379	  0.451739	  0.406388	  0.456178	
10.4123	  0.441247	  0.398806	  0.429610	
10.4456	  0.416586	  0.378773	  0.394528	
10.4788	  0.379115	  0.347084	  0.347782	
10.5121	  0.331844	  0.304489	  0.289653	
10.5454	  0.279010	  0.253541	  0.224875	
10.5786	  0.226458	  0.199950	  0.162753	
10.6119	  0.179902	  0.150664	  0.110063	
10.6452	  0.142828	  0.109897	  0.069558	
10.6784	  0.116103	  0.078971	  0.041265	
10.7117	  0.098769	  0.057471	  0.023833	
10.745	  0.088766	  0.044038	  0.015270	
10.7782	  0.084310	  0.036866	  0.013368	
10.8115	  0.083878	  0.034227	  0.016048	
10.8448	  0.085962	  0.034731	  0.021372	
10.878	  0.089458	  0.037247	  0.027916	
10.9113	  0.093276	  0.041016	  0.035096	
10.9446	  0.096213	  0.045615	  0.042460	
10.9778	  0.098072	  0.050620	  0.049354	
11.0111	  0.099319	  0.055590	  0.055159	
11.0444	  0.100173	  0.060040	  0.059623	
11.0776	  0.100818	  0.063487	  0.062893	
